<?xml version="1.0" encoding="utf-8"?>
<!-- Generator: Adobe Illustrator 21.0.2, SVG Export Plug-In . SVG Version: 6.00 Build 0)  -->
<svg version="1.1" id="Layer_1" xmlns="http://www.w3.org/2000/svg" xmlns:xlink="http://www.w3.org/1999/xlink" x="0px" y="0px"
	 viewBox="0 0 150 70" style="enable-background:new 0 0 150 70;" xml:space="preserve">
<title>logo--spektrum</title>
<path d="M6.7,26.5c1.1,0,2.2,0.3,3.1,0.8s1.7,1.2,2.2,2.1l-1.9,1.4c-0.7-1.2-2-2-3.4-2c-0.6,0-1.3,0.2-1.8,0.5s-0.7,0.9-0.7,1.5
	c0,0.5,0.2,1,0.5,1.3c0.5,0.4,1.1,0.7,1.8,1L8.4,34c1.1,0.5,2.1,1.1,3,2c0.7,0.7,1,1.7,1,2.7c0,1.3-0.5,2.6-1.6,3.4
	c-1.1,0.9-2.6,1.4-4,1.3c-1.3,0-2.5-0.3-3.6-1c-1.1-0.6-2-1.5-2.6-2.5l1.9-1.4C3.4,40.1,5,41,6.9,41.1c0.7,0,1.5-0.2,2.1-0.6
	c0.5-0.4,0.8-1,0.8-1.7c0-0.5-0.2-1-0.6-1.3c-0.6-0.4-1.2-0.8-1.9-1.1l-1.8-0.8c-1.1-0.4-2-1.1-2.8-1.9C2,33,1.7,32,1.7,31
	c0-1.2,0.5-2.4,1.5-3.2C4,26.9,5.4,26.5,6.7,26.5L6.7,26.5z"/>
<path d="M25.5,26.8c1.5-0.1,2.9,0.4,4,1.4c1,0.9,1.6,2.3,1.5,3.6c0,1.4-0.5,2.7-1.5,3.7c-1.1,1-2.5,1.5-4,1.4h-3.4v6.3h-2.6V26.8
	H25.5L25.5,26.8z M22.1,29.1v5.4h3.3c0.8,0.1,1.6-0.2,2.1-0.7c1-1.1,1-2.8,0-3.9c-0.6-0.5-1.4-0.8-2.1-0.7L22.1,29.1z"/>
<path d="M48.5,29.1h-8.2v4.8h6v2.3h-6v4.6h8.5v2.4H37.7V26.7h10.8V29.1z"/>
<path d="M87.6,29.1H82v14.1h-2.6V29.1h-5.5v-2.4h13.7V29.1z"/>
<path d="M104.1,43.2l-4.7-6.3h-3v6.3h-2.7V26.8h6c1.5-0.1,2.9,0.4,4,1.4c1,0.9,1.6,2.3,1.6,3.6c0,1-0.3,2-0.8,2.8
	c-0.6,0.8-1.4,1.5-2.3,1.8l4.9,6.8L104.1,43.2z M96.4,34.5h3.3c0.8,0.1,1.6-0.2,2.2-0.7c1-1.1,1-2.8,0-3.9c-0.6-0.5-1.4-0.8-2.2-0.7
	h-3.3V34.5z"/>
<path d="M126,36.6c0.1,1.9-0.6,3.7-1.9,5.1c-1.3,1.3-3,1.9-4.8,1.9c-1.8,0.1-3.6-0.6-4.9-1.9c-1.3-1.4-2-3.2-1.9-5.1v-9.8h2.6v10
	c-0.1,1.2,0.4,2.4,1.2,3.2c0.8,0.8,1.9,1.2,3,1.1c1.1,0,2.1-0.4,2.9-1.1c0.8-0.9,1.2-2,1.2-3.2v-10h2.6L126,36.6z"/>
<polygon points="56.1,40.7 56.3,40.7 56.1,40.5 "/>
<polygon points="68.8,39.3 68.9,39.3 68.8,39.2 "/>
<polygon points="64.4,26.8 58.4,33.7 58.4,26.8 55.8,26.8 55.8,36.7 55.8,40.4 55.9,40.5 58.4,37.7 67.8,26.8 "/>
<polygon points="63.2,36.2 60.2,36.2 60.1,36.3 65.2,43.2 68.5,43.2 "/>
<polygon points="148.6,26.5 141.6,35.7 134.7,26.5 133.8,26.5 133.8,43.2 136.5,43.2 136.5,32.9 141.6,39.7 146.8,32.9 146.8,43.2 
	149.4,43.2 149.4,26.5 "/>
</svg>
