<?xml version="1.0" encoding="utf-8"?>
<!-- Generator: Adobe Illustrator 21.0.2, SVG Export Plug-In . SVG Version: 6.00 Build 0)  -->
<svg version="1.1" id="Layer_1" xmlns="http://www.w3.org/2000/svg" xmlns:xlink="http://www.w3.org/1999/xlink" x="0px" y="0px"
	 viewBox="0 0 150 70" style="enable-background:new 0 0 150 70;" xml:space="preserve">
<title>logo--bnkr</title>
<path d="M20.1,47.4h-7.5V28.8h7.5c4.8,0,7,2,7,4.9c0,2-1.2,3.4-3.3,4.2c2.6,0.7,3.8,2.2,3.8,4.2C27.6,45.5,24.3,47.4,20.1,47.4z
	 M20.2,31.8h-4.4v4.9h3.9c2.7,0.2,3.9-1.2,3.9-2.6S22.6,31.9,20.2,31.8L20.2,31.8z M17.9,39.6h-2v4.8h4.4c2.7,0,3.7-1.2,3.7-2.6
	C24,40,21.1,39.6,17.9,39.6L17.9,39.6z M50.9,28.8v18.7H50L38.3,35.9v11.5H35V28.7h1l11.6,12V28.8H50.9L50.9,28.8z M134.9,26.1
	L134.9,26.1c0-0.1,0.1-0.1,0.1-0.1h0.9h0.1c0,0,0,0,0,0.1l0.6,2.5l0,0l1.3-2.6c0-0.1,0.1-0.1,0.1-0.1h0.1c0.1,0,0.1,0,0.1,0.1
	l1.1,2.6l0,0l0.6-2.5c0,0,0,0,0-0.1h0.1h0.9h0.1v0.1l0,0l-1.4,4.9c0,0,0,0.1-0.1,0.1h-0.1h-0.1c-0.1,0-0.1,0-0.1-0.1l-1.4-3l0,0
	l-1.4,3c0,0.1-0.1,0.1-0.1,0.1h-0.1h-0.1c0,0,0,0-0.1-0.1L134.9,26.1C134.8,26.1,134.8,26.1,134.9,26.1L134.9,26.1z M140.4,40.3
	L140.4,40.3c0,0.1-0.1,0.2-0.2,0.2h-1h-0.1H139l-1.7-2.3v2.2c0,0,0,0.1-0.1,0.1c0,0-0.1,0.1-0.1,0h-0.8h-0.1c0,0,0-0.1-0.1-0.1v-4.8
	v-0.1c0,0,0.1-0.1,0.1,0h0.8h0.1l0.1,0.1v1.9l1.6-2l0.1-0.1h0.9c0.1,0,0.1,0,0.1,0.1s0,0.1,0,0.2l-1.7,2.2L140.4,40.3
	C140.4,40.2,140.4,40.3,140.4,40.3L140.4,40.3z M138.8,48.1h-0.1V48v-0.7v-0.1h0.1h1.5h0.1v0.1v2c0,0,0,0.1-0.1,0.1h-0.1l-0.2,0.1
	l-0.4,0.1c-0.2,0.1-0.3,0.1-0.5,0.1s-0.4,0.1-0.6,0c-0.3,0-0.7-0.1-1-0.2c-0.3-0.1-0.6-0.3-0.8-0.6c-0.5-0.5-0.7-1.2-0.8-1.9
	c0-0.3,0.1-0.7,0.2-1c0.1-0.3,0.3-0.6,0.6-0.8c0.2-0.2,0.5-0.4,0.8-0.6c0.3-0.1,0.7-0.2,1-0.2s0.7,0.1,1,0.2
	c0.3,0.1,0.6,0.3,0.9,0.5c0,0,0,0.1,0.1,0.1v0.1l-0.6,0.6c-0.1,0.1-0.1,0.1-0.2,0c-0.3-0.2-0.6-0.4-1-0.3c-0.8,0-1.5,0.7-1.5,1.5
	c0,0.4,0.2,0.7,0.4,1c0.3,0.3,0.6,0.4,1,0.4c0.2,0,0.4,0,0.6-0.1v-0.5L138.8,48.1L138.8,48.1z M125.4,28.6c0-0.9,0.5-1.8,1.3-2.3
	c0.4-0.2,0.9-0.4,1.3-0.4c0.3,0,0.7,0.1,1,0.2c0.6,0.3,1.2,0.8,1.4,1.4c0.3,0.7,0.3,1.4,0,2.1c-0.1,0.3-0.3,0.6-0.6,0.8
	c-1.1,1-2.7,1-3.8,0c-0.2-0.2-0.4-0.5-0.6-0.8C125.4,29.3,125.4,28.9,125.4,28.6L125.4,28.6z M127,29.6c0.6,0.6,1.5,0.6,2.1,0
	c0.3-0.3,0.4-0.6,0.4-1s-0.2-0.7-0.4-1c-0.6-0.6-1.5-0.6-2.1,0c-0.3,0.3-0.4,0.6-0.4,1C126.6,28.9,126.8,29.3,127,29.6L127,29.6z
	 M127.2,40.4L127.2,40.4h-1h-0.1v-0.1v-4.8c0-0.1,0.1-0.1,0.1-0.1h2.2c0.3,0,0.6,0.1,0.8,0.2c0.2,0.1,0.4,0.3,0.6,0.6
	c0.1,0.2,0.2,0.5,0.2,0.8s-0.1,0.6-0.3,0.9c-0.2,0.3-0.5,0.5-0.8,0.6l1,1.8v0.1l-0.1,0.1h-1c0,0-0.1,0-0.1-0.1l-1-1.9h-0.5
	L127.2,40.4C127.3,40.3,127.3,40.4,127.2,40.4L127.2,40.4z M128.4,37.5c0.2,0,0.3-0.1,0.4-0.2c0.1-0.1,0.2-0.3,0.2-0.4
	c0-0.1-0.1-0.3-0.2-0.4c-0.1-0.1-0.2-0.2-0.4-0.2h-1.1v1.1h1.1V37.5z M127,49.7C127,49.7,126.9,49.7,127,49.7h-1h-0.1v-0.1v-4.9
	v-0.1h0.1h0.2l3,2.8l0,0v-2.6v-0.1h0.1h0.9h0.1v0.1v4.9v0.1h-0.1h-0.1H130l-2.9-2.9l0,0L127,49.7C127.1,49.7,127.1,49.7,127,49.7
	L127,49.7z M116.2,27.5c0.1-0.3,0.3-0.6,0.6-0.8c0.2-0.2,0.5-0.4,0.9-0.6c0.3-0.1,0.7-0.2,1-0.2s0.7,0.1,1,0.2s0.6,0.3,0.8,0.5
	l0.1,0.1v0.1l-0.6,0.6h-0.1h-0.1c-0.3-0.3-0.6-0.4-1-0.4s-0.8,0.2-1.1,0.5c-0.3,0.3-0.4,0.7-0.4,1.1s0.1,0.8,0.4,1.1
	c0.3,0.3,0.7,0.5,1.1,0.4c0.2,0,0.4,0,0.5-0.1c0.2-0.1,0.3-0.1,0.5-0.3h0.1h0.1l0.6,0.6v0.1v0.1c-0.5,0.5-1.1,0.7-1.8,0.7
	c-0.2,0-0.5,0-0.7-0.1s-0.4-0.1-0.6-0.3c-0.2-0.1-0.4-0.3-0.5-0.4c-0.2-0.2-0.3-0.3-0.4-0.5c-0.2-0.4-0.4-0.9-0.4-1.3
	C116.1,28.2,116.1,27.9,116.2,27.5L116.2,27.5z M116.2,38.9c-0.2-0.5-0.3-1.2-0.1-1.7c0.1-0.2,0.1-0.4,0.3-0.6
	c0.1-0.2,0.3-0.4,0.4-0.5c0.2-0.2,0.3-0.3,0.5-0.4c0.2-0.1,0.4-0.2,0.6-0.3c0.6-0.2,1.2-0.1,1.8,0.1c0.3,0.1,0.6,0.3,0.8,0.6
	c0.2,0.2,0.4,0.5,0.6,0.8c0.4,1,0.2,2.1-0.6,2.9c-0.2,0.2-0.5,0.4-0.8,0.6c-0.7,0.3-1.4,0.3-2.1,0c-0.3-0.1-0.6-0.3-0.8-0.6
	C116.5,39.5,116.3,39.2,116.2,38.9L116.2,38.9z M117.6,38.9c0.6,0.6,1.5,0.6,2.1,0l0,0c0.3-0.3,0.4-0.6,0.4-1s-0.2-0.7-0.4-1
	c-0.6-0.6-1.5-0.6-2.1,0l0,0c-0.3,0.3-0.4,0.6-0.4,1C117.2,38.3,117.3,38.7,117.6,38.9z M117.1,45.5v-0.8c0-0.1,0-0.1,0.1-0.1l0,0
	h2.9c0.1,0,0.1,0,0.1,0.1l0,0v0.8c0,0.1,0,0.1-0.1,0.1l0,0h-0.8l-0.1,3.2h0.9c0.1,0,0.1,0,0.1,0.1l0,0v0.8c0,0.1,0,0.1-0.1,0.1l0,0
	h-2.9c-0.1,0-0.1,0-0.1-0.1l0,0v-0.8c0-0.1,0-0.1,0.1-0.1l0,0h0.8l0.1-3.2L117.1,45.5C117.1,45.6,117.1,45.6,117.1,45.5L117.1,45.5
	L117.1,45.5z M81.4,47.4V28.9h8.2c5,0,7.5,2.7,7.5,6.6c-0.1,2.5-1.7,4.7-4,5.7l4.8,6.3H94L90,42c-0.5,0-2.7,0.1-3.2,0.1h-2v5.4
	L81.4,47.4L81.4,47.4z M88.7,39.1c3.1,0,4.8-1.6,4.8-3.7s-1.7-3.6-4.8-3.6h-4v7.3H88.7L88.7,39.1z M106.5,58.2H0.7V17.5h48.9
	l5.8-5.8l2.2,2.2L51,20.6H3.9v34.5h102.6V42.5h3.1v12.7h36.5V20.6h-36.5v12.7h-3.1V20.6H59.7v-3.1h89.6v40.7H106.5L106.5,58.2z
	 M59.7,47.4V28.9H63V38l7.9-9.1h4l-8.6,9.8l9,8.8h-4.1l-8.3-8v8L59.7,47.4L59.7,47.4z"/>
</svg>
