<?xml version="1.0" encoding="utf-8"?>
<!-- Generator: Adobe Illustrator 21.0.2, SVG Export Plug-In . SVG Version: 6.00 Build 0)  -->
<svg version="1.1" id="Layer_1" xmlns="http://www.w3.org/2000/svg" xmlns:xlink="http://www.w3.org/1999/xlink" x="0px" y="0px"
	 viewBox="0 0 150 70" style="enable-background:new 0 0 150 70;" xml:space="preserve">
<title>logo--academie</title>
<path d="M18.6,46.1h-3.2v-1.8c-1.1,1.4-2.8,2.2-4.6,2.1c-4.1,0-7.3-3.3-7.3-7.4c0-0.1,0-0.2,0-0.3c-0.2-4,2.9-7.5,7-7.7
	c0.1,0,0.2,0,0.3,0c1.8-0.1,3.5,0.7,4.6,2.1v-1.8h3.2C18.6,31.3,18.6,46.1,18.6,46.1z M6.8,38.8c-0.2,2.4,1.7,4.5,4.1,4.7
	s4.5-1.7,4.7-4.1c0-0.2,0-0.4,0-0.6c0.2-2.4-1.7-4.5-4.1-4.7S7,35.8,6.8,38.2C6.8,38.4,6.8,38.6,6.8,38.8z"/>
<path d="M36.5,33.4l-2,2.2c-0.9-1-2.2-1.5-3.5-1.5c-2.4,0-4.3,2-4.3,4.4c0,0.1,0,0.2,0,0.3c-0.2,2.4,1.6,4.5,4,4.7
	c0.1,0,0.2,0,0.3,0c1.3,0,2.6-0.6,3.6-1.5l2,2.2c-1.4,1.6-3.4,2.4-5.5,2.3c-4.1,0.2-7.5-3-7.7-7c0-0.2,0-0.4,0-0.7
	c-0.2-4.1,3-7.5,7-7.7c0.2,0,0.4,0,0.7,0C33.1,31,35.1,31.8,36.5,33.4z"/>
<path d="M54.5,46.1h-3.2v-1.8c-1.1,1.4-2.8,2.2-4.6,2.1c-4.1,0-7.3-3.3-7.3-7.4c0-0.1,0-0.2,0-0.3c-0.2-4,2.9-7.5,7-7.7
	c0.1,0,0.2,0,0.3,0c1.8-0.1,3.5,0.7,4.6,2.1v-1.8h3.2V46.1z M42.7,38.8c-0.2,2.4,1.7,4.5,4.1,4.7c2.4,0.2,4.5-1.7,4.7-4.1
	c0-0.2,0-0.4,0-0.6c0.2-2.4-1.7-4.5-4.1-4.7c-2.4-0.2-4.5,1.7-4.7,4.1C42.7,38.4,42.7,38.6,42.7,38.8z"/>
<path d="M71.2,33.2v-9.1h3.2v22h-3.2v-1.8c-1.1,1.4-2.8,2.2-4.6,2.1c-4.1,0-7.3-3.3-7.3-7.4c0-0.1,0-0.2,0-0.3c-0.2-4,2.9-7.5,7-7.7
	c0.1,0,0.2,0,0.3,0C68.3,31,70.1,31.8,71.2,33.2z M62.5,38.8c-0.2,2.4,1.7,4.5,4.1,4.7s4.5-1.7,4.7-4.1c0-0.2,0-0.4,0-0.6
	c0.2-2.4-1.7-4.5-4.1-4.7s-4.5,1.7-4.7,4.1C62.5,38.4,62.5,38.6,62.5,38.8z"/>
<path d="M93.2,38.7c0,0.4,0,0.8-0.1,1.2H82.4c0.2,2.2,2.1,3.8,4.3,3.7c1.6,0,3.1-0.6,4.3-1.5l1.6,2.3c-1.7,1.4-3.8,2.1-6,2.1
	c-4.4,0-7.5-3-7.5-7.7s3-7.7,7.3-7.7C90.4,31.1,93.2,34.2,93.2,38.7z M82.4,37.5H90c-0.3-2.3-1.7-3.6-3.7-3.6
	C84,33.9,82.7,35.4,82.4,37.5z"/>
<path d="M122,36.9v9.2h-3.2V38c0-2.5-1.3-3.8-3.4-3.8c-2-0.1-3.7,1.4-3.8,3.4c0,0.2,0,0.3,0,0.5v8.1h-3.2V38c0-2.5-1.3-3.8-3.4-3.8
	c-2-0.1-3.7,1.5-3.8,3.5c0,0.1,0,0.3,0,0.4v8.1H98V31.4h3.2v1.8c1-1.4,2.7-2.3,4.5-2.2c2-0.1,3.9,0.9,5.1,2.6
	c1.2-1.7,3.2-2.7,5.3-2.6c3.1-0.2,5.8,2.1,6,5.2C122,36.5,122,36.7,122,36.9z"/>
<path d="M130.8,46.1h-3.2V31.4h3.2V46.1z"/>
<path d="M149.7,38.7c0,0.4,0,0.8-0.1,1.2h-10.8c0.2,2.2,2.1,3.8,4.4,3.7c1.5,0,3-0.6,4.2-1.5l1.6,2.3c-1.7,1.4-3.8,2.1-6,2.1
	c-4.4,0-7.5-3-7.5-7.7s3-7.7,7.3-7.7C146.9,31.1,149.7,34.2,149.7,38.7z M138.8,37.5h7.6c-0.4-2.3-1.7-3.6-3.7-3.6
	C140.4,33.9,139.2,35.4,138.8,37.5z"/>
<polygon points="91.8,25.9 83.4,27.9 83.4,24.9 91.8,22.9 "/>
</svg>
