<?xml version="1.0" encoding="utf-8"?>
<!-- Generator: Adobe Illustrator 21.0.2, SVG Export Plug-In . SVG Version: 6.00 Build 0)  -->
<svg version="1.1" id="Layer_1" xmlns="http://www.w3.org/2000/svg" xmlns:xlink="http://www.w3.org/1999/xlink" x="0px" y="0px"
	 viewBox="0 0 150 70" style="enable-background:new 0 0 150 70;" xml:space="preserve">
<title>logo--apollo-13</title>
<polygon points="137.9,22.4 138.2,23.7 139.5,23.4 139.5,29.3 141.2,29.3 141.2,21.8 140,21.8 "/>
<path d="M147.2,24.9l1.9-1.8v-1.3H144v1.4h2.9l-1.8,1.8l0.3,1h0.7c0.9,0,1.5,0.3,1.5,1l0,0c0,0.5-0.4,0.9-1,0.9h-0.1
	c-0.7,0-1.4-0.3-1.8-0.9l-1.1,1.1c0.7,0.9,1.8,1.3,2.9,1.3c1.3,0.1,2.5-0.8,2.7-2.2c0-0.1,0-0.2,0-0.3l0,0
	C149.3,25.8,148.4,24.9,147.2,24.9z"/>
<path d="M34.5,29.6H27v6.8h-0.8V40H27v7.9h4v-5.5h3.1c2.3,0.1,4.4-0.8,6-2.4h-0.8c0.9-1,1.3-2.3,1.4-3.7h0.8c0-0.1,0-0.2,0-0.4l0,0
	C41.5,32.2,38.9,29.6,34.5,29.6z M36.6,36.3c-0.1,1.4-1.3,2.5-3.2,2.5h-3.2v-2.5H31v-3.1h3.1c2,0,3.3,1,3.3,2.8l0,0
	c0,0.1,0,0.2,0,0.3H36.6z"/>
<path d="M66.3,38.8L66.3,38.8c0-0.8-0.1-1.6-0.3-2.4h0.8c-1.1-4.3-5-7.2-9.4-7.1c-4.4-0.1-8.3,2.8-9.5,7.1h-0.8
	c-0.2,0.8-0.3,1.6-0.3,2.4l0,0c0,0.4,0,0.8,0.1,1.2h0.8c0.6,4.8,4.8,8.4,9.7,8.2c4.9,0.1,9.1-3.4,9.7-8.2h-0.8
	C66.3,39.6,66.3,39.2,66.3,38.8z M57.4,44.5c-2.7,0-4.9-1.9-5.4-4.5h-0.8c-0.1-0.4-0.1-0.8-0.1-1.3l0,0c0-0.8,0.2-1.6,0.5-2.4h0.8
	c0.8-2,2.8-3.4,5-3.4s4.2,1.3,5.1,3.4h-0.8c0.3,0.8,0.5,1.6,0.5,2.4l0,0c0,0.4,0,0.8-0.1,1.2h0.8C62.4,42.6,60.1,44.5,57.4,44.5
	L57.4,44.5z"/>
<polygon points="78.7,40 77.9,40 77.9,36.3 78.7,36.3 78.7,29.6 74.7,29.6 74.7,36.3 73.9,36.3 73.9,40 74.7,40 74.7,47.9 
	87.9,47.9 87.9,44.3 78.7,44.3 "/>
<polygon points="98.9,40 98.1,40 98.1,36.3 98.9,36.3 98.9,29.6 94.8,29.6 94.8,36.3 94.1,36.3 94.1,40 94.8,40 94.8,47.9 108,47.9 
	108,44.3 98.9,44.3 "/>
<path d="M131.9,38.8L131.9,38.8c0-0.8-0.1-1.6-0.3-2.4h0.8c-1.1-4.3-5-7.2-9.4-7.1c-4.4-0.1-8.3,2.8-9.5,7.1h-0.8
	c-0.2,0.8-0.3,1.6-0.3,2.4l0,0c0,0.4,0,0.8,0.1,1.2h0.8c0.9,5.3,5.9,9,11.2,8.1c4.2-0.7,7.4-3.9,8.1-8.1h-0.8
	C131.9,39.6,131.9,39.2,131.9,38.8z M122.9,44.5c-2.7,0-5-1.9-5.4-4.5h-0.8c-0.1-0.4-0.1-0.8-0.1-1.3l0,0c0-0.8,0.2-1.6,0.5-2.4h0.8
	c0.8-2,2.8-3.4,5-3.4c2.2-0.1,4.3,1.3,5.1,3.4h-0.8c0.3,0.8,0.5,1.6,0.5,2.4l0,0c0,0.4,0,0.8-0.1,1.2h0.8
	C127.9,42.6,125.6,44.6,122.9,44.5L122.9,44.5z"/>
<path d="M16,40l-1.6-3.7h0.8l-2.9-6.9H8.6l-2.9,6.9H4.9L3.3,40H4l-3.3,7.9h4.1l0.7-1.8L8.1,40H7.3l1.5-3.7h0.8l0.8-2l0.8,2h-0.8
	L12,40h0.9l1.7,4.4l1.4,3.5h4.2L17,40H16z"/>
</svg>
